<svg width="400" height="400" viewBox="0 0 400 400" fill="none" xmlns="http://www.w3.org/2000/svg">
<path d="M300.344 40.2921C304.176 47.3242 308.704 53.4655 312.64 59.9655C327.902 85.1676 331.598 112.779 329.546 141.65C326.46 185.079 299.838 212.058 265.62 233.774C251.961 242.442 237.593 249.826 222.528 255.719C218.367 257.346 215.276 259.532 213.629 263.632C211.877 267.997 208.614 269.523 204.097 269.036C202.451 268.859 200.738 268.8 199.109 269.044C192.068 270.099 187.149 267.656 184.751 260.74C183.739 257.82 180.96 257.18 178.548 256.202C156.222 247.152 135.117 235.893 116.1 221.029C94.683 204.288 77.565 184.064 72.6072 156.637C65.2183 115.761 71.251 77.4046 98.3593 44.1533C98.9858 43.3847 99.5048 42.5285 99.971 41.0072C99.7519 40.0812 99.6356 39.8613 99.4016 39.2826C99.3319 38.6758 99.3801 38.4276 99.6675 37.8864C102.449 36.7308 104.68 35.8703 104.678 32.3627C104.677 30.1658 107.23 29.1482 108.775 27.2706C109.181 26.868 109.344 26.7083 109.746 26.3092C110.612 25.4323 111.253 24.8103 112.228 24.0701C112.678 23.7579 112.857 23.6327 113.302 23.3187C114.096 22.7522 114.624 22.3753 115.424 21.8255C115.863 21.516 116.039 21.3912 116.474 21.0745C117.256 20.4881 117.769 20.0823 118.535 19.4489C118.971 19.0781 119.147 18.9272 119.604 18.5617C120.299 18.087 120.711 17.8262 121.454 17.3616C122.015 17.0235 122.244 16.8884 122.839 16.5688C128.664 17.8357 130.348 19.5157 130.409 24.5561C130.442 27.233 131.192 30.0765 129.295 32.9017C128.729 33.332 128.502 33.4962 127.936 33.8928C127.381 34.2812 127.164 34.4373 126.637 34.8272C126.128 35.2165 125.931 35.3721 125.448 35.7619C123.723 37.1828 122.451 38.5561 120.744 39.9492C120.298 40.2881 120.123 40.4248 119.691 40.77C119.268 41.119 119.102 41.2596 118.693 41.6108C118.291 41.9608 118.132 42.1001 117.739 42.4467C117.201 42.926 116.899 43.1999 116.387 43.6763C116.032 44.0043 115.89 44.1322 115.533 44.439C115.173 44.7279 115.028 44.8378 114.667 45.1029C114.311 45.3609 114.171 45.4636 113.638 45.8772C113.244 46.1882 112.873 46.5049 112.524 46.8312C112.174 47.1575 111.842 47.4976 111.524 47.8555C111.206 48.2133 110.899 48.5921 110.748 48.7892C110.496 49.1225 110.396 49.2587 110.145 49.6062C109.89 49.9628 109.788 50.108 109.517 50.4662C109.108 50.9646 108.87 51.2523 108.456 51.7744C108.156 52.1662 108.035 52.3257 107.735 52.7298C107.311 53.3098 107.068 53.6459 106.623 54.2307C106.275 54.6405 106.13 54.8022 105.768 55.2077C105.259 55.783 104.974 56.1181 104.483 56.7186C104.138 57.1588 104.001 57.3369 103.664 57.7878C102.568 59.386 101.559 60.6359 100.599 62.3545C100.274 62.8679 100.142 63.0752 99.813 63.6014C99.3547 64.3565 99.0981 64.7959 98.6532 65.5789C98.332 66.1485 98.2043 66.3775 97.8909 66.9547C91.957 73.174 92.1059 81.843 87.7345 88.4181C86.7551 89.8911 87.0496 92.2279 87.3357 94.2179C87.6486 96.3945 87.178 98.3699 86.1318 100.399C83.4906 105.522 83.6859 110.875 86.06 116.011C86.7152 117.428 87.6244 118.953 87.1025 120.18C85.5801 123.761 87.5015 126.952 87.5887 130.269C87.7459 136.255 93.1169 139.158 94.5361 144.236C95.7835 148.698 97.7643 152.848 100.815 156.865C101.141 157.4 101.273 157.61 101.599 158.131C102.595 159.622 103.301 160.859 104.186 162.399C104.494 162.899 104.617 163.099 104.93 163.596C105.501 164.489 105.904 165.07 106.461 165.972C106.787 166.46 106.92 166.653 107.261 167.128C109.768 170.865 111.973 174.39 115.184 177.6C115.548 178.066 115.694 178.253 116.067 178.713C116.446 179.166 116.6 179.345 116.986 179.786C117.373 180.22 117.527 180.391 117.91 180.818C118.874 181.91 119.63 182.73 120.421 183.936C120.728 184.373 120.853 184.545 121.166 184.97C121.602 185.553 121.845 185.887 122.268 186.462C122.58 186.852 122.706 187.005 123.028 187.378C123.358 187.741 123.493 187.882 123.836 188.228C124.188 188.563 124.331 188.694 124.925 189.199C125.532 189.693 125.688 189.812 126.085 190.107C126.484 190.403 126.644 190.523 127.046 190.825C127.456 191.128 127.623 191.248 128.046 191.548C129.201 192.33 129.98 193.068 130.905 194.144C131.268 194.586 131.418 194.762 131.767 195.23C131.983 197.558 132.435 199.324 135.027 200.085C135.529 200.326 135.731 200.421 136.235 200.663C136.94 201.008 137.346 201.2 138.048 201.536C138.537 201.801 138.732 201.914 139.264 202.019C141.017 202.136 141.968 203.127 143.321 204.056C143.771 204.366 143.952 204.488 144.404 204.793C145.926 205.846 147.18 206.712 148.709 207.757C149.142 208.092 149.316 208.227 149.752 208.559C150.884 209.424 151.811 210.005 152.99 210.793C153.44 211.089 153.62 211.205 154.073 211.491C155.252 212.218 156.165 212.764 157.359 213.466C157.803 213.765 157.979 213.887 158.425 214.187C160.677 215.625 162.708 216.798 165.176 217.884C165.693 218.131 165.898 218.238 166.396 218.53C167.858 219.475 169.013 220.256 170.503 221.143C170.978 221.457 171.199 221.53 171.658 221.872C173.335 221.894 173.7 223.985 175.446 223.877C175.88 224.238 176.049 224.374 176.486 224.708C179.925 225.61 182.636 227.611 186.177 228.324C186.694 228.626 186.904 228.744 187.448 229.005C196.318 234.771 204.526 233.677 213.348 229.135C218.189 226.642 223.32 224.598 228.383 221.723C228.922 221.563 229.13 221.48 229.64 221.227C230.34 220.82 230.738 220.579 231.424 220.137C231.901 219.805 232.088 219.671 232.549 219.332C234.588 217.789 236.648 216.977 238.858 215.749C239.346 215.475 239.542 215.366 240.03 215.085C240.513 214.796 240.705 214.677 241.181 214.375C241.652 214.068 241.839 213.943 242.304 213.63C243.701 212.72 244.844 212.036 246.211 211.093C246.68 210.814 246.867 210.702 247.332 210.424C248.165 209.934 248.711 209.598 249.496 209.05C249.917 208.738 250.084 208.612 250.497 208.293C251.234 207.714 251.734 207.342 252.516 206.826C252.946 206.532 253.119 206.415 253.55 206.118C254.151 205.694 254.496 205.45 255.109 205.033C255.555 204.739 255.734 204.621 256.178 204.319C256.622 204.016 256.801 203.895 257.245 203.58C257.697 203.272 257.881 203.158 258.315 202.818C259.299 202.708 259.786 201.478 260.963 202.111C261.478 201.895 261.665 201.776 262.152 201.505C264.738 199.959 268.182 199.737 268.098 195.512C268.329 194.983 268.473 194.799 268.842 194.354C269.961 193.1 270.921 192.173 272.108 191.007C272.514 190.64 272.682 190.499 273.113 190.169C273.551 189.852 273.723 189.724 274.15 189.406C274.57 189.087 274.735 188.958 275.14 188.631C275.535 188.298 275.69 188.163 276.071 187.821C276.443 187.47 276.589 187.326 277.149 186.723C277.692 186.101 277.822 185.938 278.14 185.523C278.449 185.099 278.57 184.927 278.873 184.495C279.185 184.065 279.314 183.895 279.652 183.481C280.297 182.751 280.761 182.292 281.453 181.58C281.854 181.173 282.016 181.01 282.418 180.592C282.969 179.984 283.28 179.631 283.815 179.004C284.178 178.547 284.318 178.363 284.654 177.899C286.211 175.652 288.167 174.156 289.498 171.748C289.839 171.322 289.982 171.157 290.333 170.74C291.958 168.566 293.27 166.573 294.714 164.267C295.023 163.804 295.146 163.617 295.45 163.144C296.909 160.947 298.172 159.027 299.317 156.614C299.602 156.073 299.717 155.854 300.005 155.299C302.393 151.24 304.368 147.399 305.837 143.316C306.292 142.049 306.833 140.782 307.698 139.808C312.752 134.122 314.372 127.603 312.853 120.193C312.663 119.264 312.758 118.149 313.252 117.263C316.546 111.35 316.743 105.466 313.238 99.5627C312.896 98.9869 312.665 98.2532 312.79 97.6414C314.23 90.6239 309.552 85.1528 308.27 78.9121C307.163 73.5222 304.746 69.4437 301.243 65.1749C300.911 64.6423 300.781 64.4312 300.461 63.9096C299.043 61.6444 297.853 59.663 296.062 57.6882C295.73 57.2247 295.596 57.0412 295.254 56.5889C294.626 55.7981 294.202 55.2783 293.577 54.5054C293.255 54.0768 293.134 53.9029 292.834 53.4735C292.54 53.0512 292.425 52.8843 292.137 52.4755C291.85 52.0778 291.736 51.9219 291.458 51.5372C291.191 51.1565 291.089 51.0047 290.835 50.6336C290.582 50.2737 290.481 50.133 290.077 49.596C289.774 49.1997 289.469 48.8284 289.162 48.4789C288.855 48.1294 288.544 47.7995 288.229 47.4841C287.915 47.1686 287.59 46.8672 287.252 46.5753C286.914 46.2834 286.558 46.0009 286.372 45.8613C286.187 45.7216 285.803 45.444 285.605 45.3031C285.407 45.1621 284.998 44.8771 284.797 44.7187C284.463 44.4478 284.33 44.3353 283.999 44.0424C283.668 43.7363 283.535 43.6105 283.199 43.2944C282.715 42.8473 282.435 42.5905 281.932 42.1367C281.557 41.8095 281.404 41.6794 281.014 41.3562C280.614 41.0358 280.451 40.9085 280.037 40.5915C279.615 40.2742 279.444 40.1466 279.013 39.8281C278.067 39.0871 277.431 38.4813 276.538 37.6521C276.116 37.2663 275.945 37.1113 275.51 36.725C273.52 35.1238 271.761 33.7954 269.732 32.1334C269.181 31.6871 268.968 31.4895 268.514 30.9134C269.332 26.7652 266.895 22.8267 269.053 18.687C269.483 18.0317 269.686 17.7886 270.253 17.2228C272.447 16.8203 274.254 16.5961 276.422 16.1675C277.092 16.4836 277.339 16.6386 277.933 17.0345C278.505 17.4321 278.729 17.5889 279.282 17.9655C279.827 18.3229 280.043 18.4604 280.575 18.7959C282.573 19.883 284.042 21.0615 285.715 22.5436C286.166 22.896 286.348 23.0347 286.804 23.3762C287.81 24.1147 288.556 24.6302 289.457 25.4912C289.86 25.8812 290.018 26.0402 290.417 26.434C291.317 27.2856 291.949 27.9302 292.858 28.7905C293.289 29.183 293.466 29.3386 293.917 29.7247C294.383 30.1066 294.573 30.2581 295.053 30.6293C295.537 30.9904 295.731 31.1317 296.186 31.518C297.625 33.0828 297.861 35.1971 300.085 36.1512C300.448 36.7121 300.591 36.9448 300.929 37.5546C301.24 38.5274 301.121 39.0722 300.344 40.2921Z" fill="#64BCF2"/>
<path d="M120.721 190.077C120.396 189.973 120.132 189.723 120.067 189.659C119.802 188.903 119.487 188.244 119.188 187.23C118.97 186.942 119.007 186.99 119.024 187.015C117.274 185.949 116.216 184.291 115.177 182.193C114.981 181.926 115.029 181.986 115.051 182.017C114.816 181.809 114.563 181.565 114.135 181.123C113.954 180.931 114.011 180.978 114.039 181.003C110.099 177.424 107.137 173.045 104.189 168.217C103.977 167.942 104.014 167.993 104.03 168.021C103.181 167.373 102.828 166.364 102.159 165.187C101.97 164.935 102.011 164.993 102.03 165.023C100.981 163.63 99.9595 162.18 99.1786 160.207C98.9749 159.943 99.0112 159.994 99.0275 160.021C80.6464 128.869 77.7681 97.1088 95.7592 64.2682C96.0563 63.9596 96.0193 64.0171 95.9991 64.0446C96.4048 63.6063 96.4897 62.9998 96.8431 62.1906C97.0286 61.9538 97.0051 62.0004 96.9913 62.0226C98.3213 59.709 99.3649 57.1687 101.785 55.1728C102.055 54.9635 102.018 55.0164 101.997 55.0415C102.41 54.6032 102.489 53.9924 102.842 53.179C103.023 52.9377 102.987 52.9875 102.968 53.011C103.951 52.2683 104.304 50.871 105.808 50.1559C106.058 49.964 106.018 50.0152 105.997 50.0394C106.556 49.2025 107.133 48.3385 107.837 47.1859C108.021 46.934 107.981 46.9907 107.959 47.0177C108.188 46.8073 108.436 46.5661 108.859 46.1345C109.038 45.9481 108.995 45.9951 108.972 46.0169C109.197 45.7999 109.443 45.5583 109.866 45.1278C110.045 44.9419 109.995 44.9949 109.969 45.0197C110.192 44.8048 110.439 44.5621 110.864 44.1293C111.044 43.9423 110.995 43.9954 110.969 44.0203C111.191 43.8062 111.437 43.5644 111.86 43.1338C112.04 42.9478 111.992 42.9866 111.966 43.0042C112.404 42.5799 113.024 42.5132 113.841 42.153C114.088 41.9767 114.025 42.0315 113.993 42.0575C114.44 41.4419 114.77 40.6614 115.827 40.1435C116.071 39.9607 116.012 40.0166 115.981 40.0429C116.19 39.8155 116.434 39.5656 116.869 39.1374C117.057 38.9551 117.012 39.0064 116.988 39.0305C118.691 36.6288 121.344 35.2729 123.794 33.1674C124.06 32.9609 124.005 33.01 123.976 33.0329C124.192 32.8091 124.437 32.5627 124.866 32.1308C125.048 31.9447 124.995 31.9918 124.967 32.0135C130.607 28.042 131.048 26.431 128.642 20.8192C127.351 17.8084 125.76 17.6131 123.204 19.8289C122.927 20.0389 122.991 19.9882 123.024 19.9645C122.495 20.5049 121.932 21.0681 121.167 21.8517C120.962 22.0683 121.017 22.0231 121.046 22.0021C120.2 22.548 119.338 23.1355 118.191 23.8554C117.946 24.0509 118.005 24.0084 118.035 23.989C117.207 24.5549 116.34 25.1297 115.192 25.842C114.944 26.0315 114.991 25.9897 115.015 25.9706C114.267 26.948 112.874 27.3034 112.158 28.8078C111.967 29.0595 112.012 29.0143 112.036 28.9934C108.361 32.3223 103.985 34.9863 101.198 39.7724C100.984 40.0662 101.023 40.01 101.045 39.9832C100.816 40.1952 100.563 40.4317 100.136 40.8598C99.963 41.0537 100.016 41.0288 100.043 41.0196C97.6357 39.9942 96.9818 42.2625 95.9968 43.4506C80.5109 62.1287 71.0828 83.5449 68.2135 107.608C65.9585 126.519 65.3657 145.52 70.5734 164.131C77.3477 188.342 92.5064 206.782 111.561 222.411C121.239 230.35 131.573 237.334 142.445 243.536C143.684 244.243 145.241 244.647 146.134 246.558C141.265 246.931 135.74 245.334 132.118 248.369C126.193 253.333 122.829 250.011 118.458 246.363C96.4658 228.009 74.3187 209.84 52.1494 191.699C49.6222 189.631 48.3334 187.536 48.4857 184.116C50.0656 148.645 55.5904 113.953 69.4716 81.0414C81.4542 52.6314 99.0915 28.3568 123.591 9.27336C126.574 6.94959 127.976 7.05458 130.102 10.2059C135.558 18.2959 139.926 26.7886 141.807 36.4428C142.135 38.1253 142.53 39.6788 140.738 40.8755C125.927 50.7638 119.758 65.9325 116.498 82.3752C112.167 104.216 114.266 125.501 124.97 145.423C131.556 157.68 140.574 167.013 155.311 168.679C158.462 169.035 157.902 170.943 157.648 172.962C156.68 180.646 154.055 187.766 150.487 195.243C143.959 201.021 136.934 200.742 129.318 197.213C128.943 196.976 128.99 197.014 129.012 197.035C128.376 195.28 126.187 195.07 125.16 193.207C124.957 192.949 125.011 192.99 125.037 193.012C124.602 192.586 123.984 192.512 123.161 192.158C122.913 191.983 122.982 192.032 123.015 192.058C122.81 191.819 122.564 191.562 122.114 191.132C121.917 190.952 121.992 191.015 122.029 191.048C121.76 190.742 121.42 190.442 120.721 190.077Z" fill="#64BCF2"/>
<path d="M246.716 191.482C245.718 185.174 242.888 179.247 242.31 172.729C242.147 170.881 241.575 169.009 244.424 168.724C257.719 167.393 266.344 159.367 273.244 148.731C290.992 121.375 289.227 76.0275 269.401 49.9994C266.835 46.6314 263.896 43.6799 260.342 41.5211C257.981 40.087 257.784 38.5605 258.262 36.1497C260.251 26.1364 264.871 17.3993 270.701 9.15944C272.258 6.95775 273.373 6.95989 275.43 8.54812C292.627 21.8292 306.776 37.7736 317.954 56.4058C336.476 87.2812 345.235 121.167 349.258 156.58C350.292 165.682 351.04 174.784 351.519 183.925C351.682 187.042 350.818 189.275 348.368 191.283C324.535 210.816 300.75 230.409 277.015 250.061C274.852 251.852 273.324 252.164 271.082 250.142C266.209 245.746 259.931 246.913 252.847 246.522C258.704 242.917 263.645 239.989 268.471 236.883C286.54 225.255 302.856 211.657 315.351 193.975C326.925 177.595 332.409 159.214 333.135 139.204C334.215 109.432 329.6 81.0975 312.971 55.6718C309.37 50.1655 306.12 44.279 300.192 40.7167C299.919 41.0178 299.975 41.0333 300.002 41.0436C299.553 40.4199 299.218 39.654 298.172 39.1467C297.929 38.9681 297.972 39.0185 297.992 39.0448C296.973 36.8139 295.147 35.1942 293.213 33.2076C292.963 32.9558 293.01 32.9915 293.033 33.0107C292.598 32.5809 291.98 32.5124 291.161 32.1589C290.913 31.9849 290.971 32.0316 290.999 32.0561C290.34 31.0114 289.69 29.9075 288.201 29.1653C287.948 28.9728 287.992 29.0094 288.013 29.029C287.305 27.5324 285.896 26.9247 284.183 26.1734C283.915 25.9806 283.973 26.0302 284.001 26.0562C282.902 23.6552 280.442 22.8029 278.203 21.1678C277.935 20.963 277.994 21.0101 278.023 21.035C277.807 20.8089 277.56 20.5595 277.127 20.1257C276.941 19.9394 277.005 19.9909 277.036 20.0179C275.527 19.5349 274.658 16.9443 272.191 18.788C271.947 19.0239 271.98 18.9707 271.999 18.9449C271.154 22.4374 268.293 25.87 271.805 29.8063C272.049 30.0475 271.996 30.0062 271.97 29.9842C273.755 31.5941 276.428 32.1536 277.834 34.8085C278.034 35.0794 277.974 35.0297 277.945 35.0038C279.183 35.7879 280.381 36.6957 281.819 37.8157C282.045 38.0456 281.991 38.0107 281.965 37.9917C282.4 38.4159 283.017 38.4879 283.836 38.8424C284.083 39.0184 284.03 38.972 284.005 38.9477C284.547 39.8007 285.139 40.6628 285.84 41.827C286.022 42.0828 285.967 42.031 285.94 42.0041C286.388 42.3966 286.996 42.4905 287.816 42.8395C288.058 43.0224 288.009 42.9876 287.985 42.9688C288.201 43.1981 288.443 43.4439 288.874 43.8668C289.06 44.0466 289.006 43.9948 288.98 43.9675C289.194 44.1907 289.437 44.4383 289.871 44.8638C290.057 45.0449 290.005 44.995 289.98 44.9687C290.194 45.1909 290.436 45.4367 290.866 45.8604C291.052 46.0407 291.004 45.9952 290.982 45.9712C291.2 46.1968 291.443 46.444 291.877 46.8676C292.066 47.0471 292.008 46.9913 291.981 46.9623C292.194 47.1883 292.438 47.4394 292.878 47.866C293.07 48.0462 293.022 47.9864 293 47.9555C293.407 48.3946 293.489 49.0087 293.847 49.8263C294.03 50.0688 293.984 50.0108 293.962 49.9808C294.189 50.192 294.436 50.4352 294.863 50.8659C295.045 51.0511 294.997 51.007 294.975 50.9837C295.948 51.7338 296.303 53.1282 297.811 53.8412C298.064 54.0306 298.021 53.9823 298.001 53.9571C299.196 56.6566 301.655 58.6222 302.813 61.7816C303.025 62.0527 302.99 62.0062 302.974 61.9819C310.886 74.2045 315.046 87.6519 315.965 102.182C317.218 122.004 312.556 140.358 302.243 157.735C301.946 158.044 301.981 157.987 301.999 157.959C301.125 160.3 300.137 162.618 298.2 164.802C297.953 165.047 297.988 164.992 298.006 164.965C296.732 167.62 294.955 170.006 293.176 172.791C292.968 173.065 293.009 173.008 293.032 172.981C291.151 175.468 288.659 177.542 287.182 180.799C286.979 181.072 287.022 181.016 287.045 180.988C286.44 181.447 285.661 181.769 285.147 182.815C284.964 183.054 285.007 183.008 285.03 182.987C283.863 184.177 282.617 185.334 281.2 186.797C280.961 187.033 280.992 186.991 281.009 186.971C280.576 187.406 280.513 188.025 280.158 188.841C279.984 189.089 280.034 189.02 280.06 188.986C279.82 189.189 279.562 189.436 279.132 189.887C278.952 190.084 279.019 190.033 279.053 190.008C278.61 190.399 278.001 190.49 277.182 190.844C276.942 191.029 276.992 190.988 277.018 190.969C276.802 191.196 276.56 191.441 276.131 191.865C275.947 192.047 275.991 191.997 276.014 191.973C274.643 193.624 272.726 194.765 271.178 196.781C270.963 197.06 271.011 197.015 271.037 196.994C267.933 199.068 264.469 200.182 260.766 199.446C256.955 198.689 253.061 201.795 249.014 198.751C248.426 198.26 248.2 198.056 247.645 197.538C246.399 196.082 245.044 195.206 245.099 193.076C245.345 192.098 245.722 191.709 246.716 191.482Z" fill="#64BCF2"/>
<path d="M230.224 215.267C216.358 225.911 201.302 229.807 184.093 223.408C167.159 217.11 159.908 204.783 163.353 187.006C163.732 185.048 164.412 183.146 164.743 181.183C166.845 168.723 173.68 162.129 186.703 160.515C200.226 158.84 213.155 159.518 225.897 164.188C227.428 164.749 229.076 165.15 229.868 166.913C234.192 176.542 237.738 186.344 237.37 197.148C237.145 203.75 234.808 209.46 230.269 214.714C230.309 215.066 230.566 215.107 230.824 215.148C230.626 215.318 230.429 215.488 230.224 215.267Z" fill="#64BCF2"/>
<path d="M263.28 286.793C259.821 286.733 259.56 289.612 258.625 291.481C249.256 310.209 243.881 330.282 239.074 350.529C237.616 356.674 236.231 362.843 235.065 369.049C234.413 372.523 232.446 375.075 230.303 377.641C229.23 378.926 227.987 379.557 226.37 379.08C224.323 378.477 224.862 376.682 224.944 375.315C225.578 364.653 228.052 354.272 230.298 343.899C234.55 324.264 239.366 304.753 243.803 285.157C244.62 281.55 246.116 278.895 249.356 276.852C253.699 274.114 257.905 271.062 261.782 267.697C272.5 258.398 284.999 256.871 298.266 259.177C303.715 260.125 307.956 262.912 309.238 269.193C310.278 274.285 313.554 278.499 316.494 282.744C316.957 283.413 317.727 284.215 317.029 284.909C316.132 285.803 315.339 284.16 313.776 284.708C312.992 285.044 312.775 285.11 312.229 285.225C311.687 285.222 311.476 285.171 311.02 284.915C310.637 284.559 310.497 284.407 310.165 284.024C309.846 283.645 309.719 283.497 309.207 282.933C308.692 282.388 308.561 282.258 308.23 281.94C307.893 281.63 307.757 281.508 307.413 281.205C307.063 280.904 306.921 280.784 306.578 280.468C306.12 279.989 305.86 279.71 305.384 279.229C304.872 278.753 304.566 278.491 303.994 278.055C302.855 277.235 301.878 276.732 300.823 275.761C300.401 275.391 300.231 275.243 299.806 274.873C298.16 273.451 296.549 272.612 294.61 271.654C294.098 271.403 293.891 271.306 293.368 271.078C292.419 270.738 293.126 271.123 292.604 270.755C285.854 265.993 281.196 270.405 276.171 274.625C275.727 275.003 275.544 275.149 275.094 275.518C274.657 275.898 274.486 276.054 274.07 276.451C273.668 276.859 273.511 277.024 273.13 277.444C272.165 278.543 271.518 279.46 270.597 280.583C270.123 281.185 269.858 281.531 269.415 282.141C268.528 283.432 267.708 284.378 266.87 285.684C266.57 286.082 266.435 286.226 266.062 286.549C265.641 286.777 265.457 286.827 264.986 286.93C264.33 286.865 263.952 286.8 263.28 286.793Z" fill="#64BCF2"/>
<path d="M86.5896 284.154C85.0316 284.4 84.0581 284.866 82.711 285.509C82.5948 283.129 84.0756 281.889 85.0446 280.491C87.6224 276.771 90.1127 272.916 90.9935 268.488C91.9434 263.712 94.9371 261.156 99.1124 260.003C112.297 256.363 124.79 257.786 136.083 266.007C140.248 269.04 144.054 272.635 148.447 275.267C153.245 278.142 155.562 282.006 156.793 287.371C163.08 314.747 170.101 341.962 174.506 369.742C174.818 371.709 175.002 373.709 175.058 375.699C175.093 376.934 175.504 378.502 173.727 379.05C172.109 379.549 170.871 378.993 169.781 377.694C167.524 375.004 165.6 372.321 164.847 368.658C159.953 344.84 154.459 321.168 144.799 298.72C142.846 294.181 141.252 289.375 136.94 285.857C133.192 287.142 132.728 284.115 130.963 282.582C130.63 282.103 130.496 281.912 130.152 281.446C129.798 280.991 129.654 280.813 129.288 280.379C128.917 279.958 128.767 279.794 128.397 279.385C127.593 278.509 127.139 277.779 126.418 276.863C125.933 276.321 125.634 276.03 125.069 275.559C123.918 274.738 123.071 274.046 121.932 273.182C121.472 272.861 121.286 272.736 120.814 272.43C118.862 270.885 116.622 270.528 115.057 268.888C113.454 267.207 111.562 267.185 109.969 269.063C108.836 270.399 107.323 271.014 105.453 271.735C104.939 271.98 104.736 272.084 104.235 272.354C102.21 273.632 100.397 274.618 98.625 276.263C98.186 276.631 98.0066 276.772 97.5476 277.11C96.8994 277.563 96.5341 277.825 95.9127 278.293C95.4856 278.632 95.3176 278.768 94.9036 279.11C94.3299 279.578 93.9931 279.828 93.4009 280.246C92.6801 280.798 92.2154 281.18 91.5841 281.824C91.2491 282.194 91.1172 282.344 90.7907 282.726C90.4676 283.115 90.339 283.272 90.0162 283.667C89.6749 284.049 89.5279 284.193 89.1253 284.515C88.6726 284.76 88.4756 284.828 87.9721 284.83C87.5018 284.634 87.338 284.503 86.5896 284.154Z" fill="#64BCF2"/>
<path d="M307.255 275.905C307.594 276.014 307.845 276.278 307.911 276.341C308.238 277.319 308.602 278.162 309.793 278.837C310.07 279.05 310.013 278.988 309.981 278.959C310.191 279.187 310.437 279.439 310.879 279.869C311.071 280.05 311.013 279.987 310.982 279.957C311.192 280.187 311.439 280.441 311.886 280.871C312.081 281.052 312.034 280.98 312.007 280.946C312.402 281.391 312.489 282.007 312.852 282.828C313.038 283.07 312.999 283.001 312.976 282.968C313.413 283.397 313.492 284.017 313.833 284.849C314.019 285.093 313.96 285.017 313.927 284.981C312.271 289.113 308.961 288.634 305.828 287.519C303.031 286.523 300.501 284.803 297.774 283.579C287.155 278.808 278.274 282.085 273.632 292.742C270.917 298.977 268.702 305.325 268.961 312.434C269.155 317.775 266.987 322.822 264.63 327.624C257.856 341.427 248.831 353.765 239.567 365.941C239.298 366.294 238.723 366.414 237.953 366.533C237.616 366.424 238.023 366.503 237.816 366.506C242.946 342.394 248.229 318.263 258.842 295.733C260.113 293.035 261.492 290.388 262.908 287.257C262.995 286.796 263.017 286.673 263.029 286.617C262.907 286.291 262.774 286.021 262.835 285.344C263.029 284.937 262.989 284.985 262.972 285.011C264.428 283.572 265.342 281.636 267.264 280.133C267.574 279.98 267.861 279.728 267.929 279.661C268.659 278.096 268.876 276.335 270.767 275.18C271.051 274.963 271.011 275.01 270.995 275.036C271.416 274.599 271.488 273.984 271.845 273.17C272.023 272.927 271.976 272.974 271.955 273C278.469 267.454 285.933 265.671 294.676 267.789C295.059 268.023 295.006 267.993 294.979 267.981C297.146 269.169 299.352 270.347 301.784 271.821C302.056 272.03 302.007 271.989 301.98 271.972C303.435 273.459 305.033 274.812 307.255 275.905Z" fill="#64BCF2"/>
<path d="M88.9265 279.718C89.4024 279.031 89.773 278.669 90.2737 278.163C91.3203 277.762 92.161 277.397 92.8365 276.207C93.0497 275.931 92.9848 275.975 92.9553 276C93.393 275.595 94.004 275.51 94.8232 275.16C95.0669 274.98 95.0146 275.014 94.9918 275.036C97.1165 272.682 99.8654 271.107 102.776 269.183C103.044 268.975 102.995 268.997 102.974 269.012C109.468 266.476 115.955 265.415 122.691 269.734C123.039 270.059 122.988 270.02 122.959 270.004C124.613 270.881 126.148 272.034 128.249 272.899C128.591 273.006 128.853 273.279 128.922 273.343C129.43 275.039 130.337 276.381 131.785 277.793C132.032 278.043 131.999 277.999 131.979 277.98C132.201 278.202 132.443 278.442 132.865 278.863C133.047 279.042 133.017 278.992 132.997 278.971C133.94 281.262 135.759 283.103 136.789 285.765C136.998 286.037 136.978 286 136.962 285.986C137.185 289.604 139.646 292.279 141.081 295.383C151.47 317.849 157.079 341.729 162.233 366.164C162.33 366.546 161.971 366.538 162.146 366.496C160.247 367.012 159.836 365.137 159.021 364.058C151.997 354.756 145.13 345.351 139.394 335.163C134.624 326.691 130.634 318.181 130.84 307.981C130.96 302.009 128.325 296.267 125.476 290.961C120.57 281.828 112.672 279.14 103.116 283.197C100.057 284.496 97.1811 286.221 94.154 287.604C90.5175 289.266 87.0688 287.807 86.1829 284.192C86.005 283.934 85.9707 283.995 85.9575 284.027C86.2043 283.824 86.4506 283.575 86.8735 283.13C87.0622 282.947 87.0101 283.006 86.9882 283.038C87.4092 282.606 87.4886 281.987 87.844 281.161C88.0211 280.913 87.9691 280.988 87.9469 281.028C88.2603 280.758 88.5609 280.418 88.9265 279.718Z" fill="#64BCF2"/>
<path d="M230.533 215.25C230.216 214.876 230.151 215.04 230.101 215.032C233.318 216.753 233.998 213.613 235.031 212.031C240.257 204.021 240.499 195.192 238.688 186.139C237.71 181.249 236.094 176.55 234.467 171.842C234.033 170.586 231.405 168.333 234.537 167.667C236.623 167.224 239.577 167.527 240.146 171.088C240.851 175.498 241.828 179.874 242.885 184.217C243.507 186.773 244.265 189.356 246.703 191.385C247.151 191.465 247.07 191.494 247.05 191.483C247.554 192.491 248.205 193.444 248.825 194.795C249.037 195.067 248.974 195.027 248.956 194.994C252.668 197.746 256.719 199.555 261.517 199.142C262.831 199.029 264.512 198.502 265.27 199.757C266.322 201.501 263.877 202.017 263.227 203.701C263.004 204.072 263.032 204.025 263.058 204.016C262.011 204.852 260.623 204.993 259.192 205.832C258.928 206.033 258.983 205.969 259.021 205.953C258.813 206.186 258.566 206.434 258.136 206.872C257.953 207.061 257.995 206.998 258.03 206.982C257.369 207.81 256.366 208.174 255.189 208.849C254.941 209.044 254.986 208.984 255.021 208.97C254.264 209.941 252.871 210.303 252.162 211.825C251.979 212.084 252.024 212.029 252.057 212.016C251.336 212.707 250.346 212.394 249.209 212.821C248.939 213.033 248.987 212.981 249.021 212.973C247.452 214.569 245.402 215.495 243.227 216.835C242.971 217.051 243 216.997 243.029 216.986C242.803 217.206 242.555 217.442 242.142 217.877C241.969 218.067 242.008 218.018 242.038 218.011C239.315 219.41 236.232 220.259 233.778 222.893C233.467 223.081 233.521 223.025 233.558 223.012C232.903 223.197 232.245 223.512 231.241 223.823C230.961 224.051 231.002 224.011 231.03 224.012C222.528 227.643 214.248 231.827 205.637 235.302C201.723 236.882 198.355 237.272 194.505 235.358C192.02 234.124 189.429 232.89 186.272 232.224C185.937 232.014 185.992 232.017 186.009 232.038C182.506 230.193 178.975 228.353 174.767 227.119C174.41 227.004 174.485 227.025 174.514 227.051C173.413 225.839 171.809 225.346 170.196 224.221C169.941 223.978 170.006 223.989 170.028 224.013C168.577 223.379 167.112 222.697 165.216 222.211C164.927 222.012 164.984 222.023 165.003 222.045C162.517 219.899 159.487 218.693 156.211 217.207C155.922 217.005 155.983 217.023 156.003 217.049C154.988 215.972 153.696 215.211 152.203 214.183C151.943 213.996 151.995 214.007 152.008 214.031C150.982 212.932 149.23 212.818 148.149 211.212C147.943 210.959 148.012 210.984 148.034 211.013C146.071 210.009 144.136 208.898 142.183 207.202C141.94 206.968 142.008 206.99 142.029 207.018C140.627 205.98 139.177 204.957 137.192 204.193C136.918 204.003 136.982 204.028 137.003 204.055C136.559 203.435 136.23 202.663 135.176 202.152C134.931 201.973 134.974 201.991 134.972 202.014C132.694 198.15 136.544 198.835 137.738 199.018C142.57 199.756 146.55 198.164 150.684 195.209C151.064 194.962 151.029 195.049 150.997 195.084C157.41 189.284 157.976 181.104 159.544 173.363C160.672 167.792 160.553 167.761 167.122 167.844C164.086 175.889 161.133 183.814 160.49 192.353C159.509 205.405 164.254 215.52 175.777 221.962C192.278 231.188 208.834 230.778 225.161 221.425C227.508 220.081 230.337 218.904 230.533 215.25Z" fill="#64BCF2"/>
<path d="M278.427 254.727C297.887 238.422 317.746 222.214 337.612 206.013C342.501 202.027 348.182 204.089 353.441 204.445C355.855 204.609 353.811 206.744 353.006 207.73C348.38 213.398 343.628 218.965 339.024 224.65C329.829 236.004 319.687 246.675 313.215 260.011C312.556 261.369 311.919 261.865 310.628 260.787C301.143 252.864 290.082 253.327 278.427 254.727Z" fill="#64BCF2"/>
<path d="M322.749 277.944C320.816 280.355 319.555 279.274 318.194 277.715C313.026 271.792 312.626 264.38 317.673 257.026C315.815 264.904 324.659 269.764 322.749 277.944Z" fill="#64BCF2"/>
<path d="M78.309 269.51C81.9132 265.96 81.9376 261.598 82.2528 257.098C87.6672 263.561 86.8404 274.207 80.8716 278.764C78.5712 280.52 77.3714 279.02 77.0752 277.065C76.7086 274.646 76.8951 272.121 78.309 269.51Z" fill="#64BCF2"/>
<path d="M162.297 366.529C162.33 366.547 162.113 366.921 162.113 366.921C162.113 366.921 162.233 366.659 162.276 366.557C162.32 366.455 162.264 366.511 162.297 366.529Z" fill="#64BCF2"/>
<path d="M237.648 366.452C237.666 366.528 237.716 366.632 237.688 366.622C237.608 366.507 237.681 366.48 237.648 366.452Z" fill="#64BCF2"/>
<path d="M278.017 254.545C278.021 254.517 277.713 254.783 277.713 254.783C277.713 254.783 277.989 254.841 278.007 254.735C278.025 254.628 278.013 254.573 278.017 254.545Z" fill="#64BCF2"/>
<path d="M302.302 158.165C304.332 152.404 306.932 146.842 309.067 141.108C318.66 115.341 317.307 90.2131 304.331 65.839C303.786 64.8154 303.333 63.743 302.898 62.3256C305.264 61.7448 305.515 63.8537 306.177 65.1339C322.376 96.479 320.582 127.331 303.446 157.708C303.3 157.967 302.925 158.096 302.302 158.165Z" fill="#64BCF2"/>
<path d="M95.7046 63.8042C92.8506 71.9528 88.8214 79.6253 87.0104 88.1554C82.5314 109.252 84.8331 129.524 94.1724 148.98C95.8271 152.427 97.4973 155.867 99.1019 159.679C97.7354 160.367 97.3036 159.34 96.8413 158.516C80.046 128.567 77.436 98.0069 92.9278 66.6808C93.5123 65.4987 94.0198 64.2394 95.7046 63.8042Z" fill="#64BCF2"/>
<path d="M186.073 232.347C189.696 230.714 192.398 233.545 195.469 234.658C198.636 235.807 201.393 235.984 204.502 234.604C213.098 230.788 221.783 227.172 230.746 223.744C228.255 227.32 224 228.105 220.416 230.038C217.501 231.609 214.083 232.315 211.309 234.07C202.51 239.635 194.321 237.676 186.073 232.347Z" fill="#64BCF2"/>
<path d="M263.337 203.999C263.567 201.22 262.768 200.058 259.531 200.378C255.329 200.793 251.86 198.868 249.041 195.303C249.2 194.79 249.625 194.416 249.7 194.477C256.145 199.651 263.205 198.282 270.687 196.718C269.479 200.228 266.333 201.82 263.337 203.999Z" fill="#64BCF2"/>
<path d="M150.748 194.692C148.834 198.76 145.339 200.126 141.123 200.438C139.288 200.574 137.05 199.573 135.322 201.9C132.146 201.721 130.806 199.377 128.973 197.322C129.794 196.156 130.84 196.319 131.732 196.676C138.392 199.34 144.597 198.484 150.748 194.692Z" fill="#64BCF2"/>
<path d="M123.247 20.1744C126.619 15.7848 127.319 15.8479 129.38 20.6208C132.053 26.8078 131.337 29.0508 125.3 32.1552C127.064 29.1116 130.211 26.7103 128.089 22.1811C126.937 19.7227 125.696 19.4376 123.247 20.1744Z" fill="#64BCF2"/>
<path d="M103.722 168.247C108.122 171.415 110.556 176.263 114.004 180.687C110.672 181.35 110.171 178.147 108.628 176.362C106.595 174.01 104.502 171.605 103.722 168.247Z" fill="#64BCF2"/>
<path d="M101.315 39.9864C99.6784 37.2997 102.325 36.3865 103.599 35.1177C105.996 32.7301 108.22 30.0461 111.735 28.7725C109.262 33.2582 105.003 36.1525 101.315 39.9864Z" fill="#64BCF2"/>
<path d="M272.088 29.6514C268.381 29.4186 269.061 26.6386 269.46 24.3112C269.757 22.572 270.711 20.945 271.695 19.0938C273.174 22.3526 269.669 25.8358 272.088 29.6514Z" fill="#64BCF2"/>
<path d="M174.639 227.306C179.157 226.136 182.4 229.349 186.065 231.686C181.82 231.796 178.411 229.534 174.639 227.306Z" fill="#64BCF2"/>
<path d="M287.308 180.973C286.812 177.047 290.128 175.279 292.698 172.875C292.429 176.401 289.742 178.439 287.308 180.973Z" fill="#64BCF2"/>
<path d="M156.069 217.319C160.031 216.35 162.57 219.084 165.171 221.714C161.635 221.485 158.998 219.416 156.069 217.319Z" fill="#64BCF2"/>
<path d="M303.257 61.7354C300.261 60.2148 298.735 57.4611 297.716 54.2295C300.816 55.6924 302.328 58.4265 303.257 61.7354Z" fill="#64BCF2"/>
<path d="M233.844 223.034C234.622 219.084 238.402 218.821 241.748 217.744C240.108 220.697 236.928 221.469 233.844 223.034Z" fill="#64BCF2"/>
<path d="M123.707 32.835C122.705 35.8061 120.017 37.2484 117.312 39.0472C117.595 35.4293 120.789 34.3859 123.707 32.835Z" fill="#64BCF2"/>
<path d="M292.851 33.2983C295.905 33.7478 297.697 35.7097 298.326 38.8033C295.735 37.7658 294.081 35.854 292.851 33.2983Z" fill="#64BCF2"/>
<path d="M293.316 173.006C292.705 169.465 295.73 167.67 297.683 165.019C298.47 168.641 295.479 170.474 293.316 173.006Z" fill="#64BCF2"/>
<path d="M101.713 54.791C101.366 57.7746 99.3917 59.775 97.319 61.9867C96.6184 58.4902 99.0952 56.6139 101.713 54.791Z" fill="#64BCF2"/>
<path d="M271.318 197.05C270.976 194.127 273.64 193.454 275.681 191.948C275.979 194.844 273.429 195.601 271.318 197.05Z" fill="#64BCF2"/>
<path d="M141.86 207.335C144.505 207.077 146.07 208.922 147.958 210.71C145.012 211.719 143.533 209.455 141.86 207.335Z" fill="#64BCF2"/>
<path d="M277.983 21.3044C281.134 20.9543 282.848 23.1173 284.244 25.7554C281.705 25.0423 279.767 23.4809 277.983 21.3044Z" fill="#64BCF2"/>
<path d="M278.236 34.7478C275.668 34.0885 273.782 32.4451 271.975 30.3071C275.086 30.0235 276.871 32.0611 278.236 34.7478Z" fill="#64BCF2"/>
<path d="M298.324 165.121C298.013 162.225 300.048 160.389 301.694 158.064C302.941 161.281 300.457 163.072 298.324 165.121Z" fill="#64BCF2"/>
<path d="M114.69 182.216C116.85 182.94 118.031 184.599 119.076 186.695C116.284 186.768 115.192 184.79 114.69 182.216Z" fill="#64BCF2"/>
<path d="M272.207 19.3273C274.064 13.3217 275.302 19.3307 277.026 19.7238C275.533 19.9069 274 19.7687 272.207 19.3273Z" fill="#64BCF2"/>
<path d="M243.319 217.217C243.786 214.406 246.421 214.142 248.7 212.956C248.688 216.181 245.747 216.256 243.319 217.217Z" fill="#64BCF2"/>
<path d="M281.301 187.165C281.093 184.803 282.767 183.789 284.709 182.839C284.87 185.16 283.264 186.234 281.301 187.165Z" fill="#64BCF2"/>
<path d="M137.071 204.325C139.587 202.592 140.379 205.236 141.975 206.678C139.663 207.812 138.766 205.58 137.071 204.325Z" fill="#64BCF2"/>
<path d="M98.7441 160.267C101.001 160.709 101.395 162.648 102.091 164.697C99.4797 164.668 99.1443 162.512 98.7441 160.267Z" fill="#64BCF2"/>
<path d="M124.858 193.296C127.081 193.233 128.33 194.63 129.171 196.713C126.942 196.754 125.733 195.346 124.858 193.296Z" fill="#64BCF2"/>
<path d="M169.872 224.36C171.997 223.784 173.539 224.657 174.63 226.679C172.693 226.846 170.998 226.301 169.872 224.36Z" fill="#64BCF2"/>
<path d="M151.943 214.344C154.066 213.565 155.316 214.759 156.183 216.719C154.327 216.855 153.007 215.992 151.943 214.344Z" fill="#64BCF2"/>
<path d="M284.046 26.29C286.353 24.8849 287.147 26.8957 288.153 28.6663C286.284 28.9634 285.34 27.6081 284.046 26.29Z" fill="#64BCF2"/>
<path d="M282.107 37.6623C280.143 38.2011 279.377 36.5692 278.054 35.2872C280.302 33.9545 281.019 36.0172 282.107 37.6623Z" fill="#64BCF2"/>
<path d="M298.03 53.6756C295.863 54.8248 295.696 52.8499 294.932 51.3379C296.941 50.4904 297.17 52.2895 298.03 53.6756Z" fill="#64BCF2"/>
<path d="M259.211 206.299C259.705 204.558 260.792 203.511 262.82 203.701C262.236 205.349 261.095 206.279 259.211 206.299Z" fill="#64BCF2"/>
<path d="M165.109 222.348C167.073 220.45 168.21 222.592 169.891 223.68C167.946 225.41 166.814 223.361 165.109 222.348Z" fill="#64BCF2"/>
<path d="M252.324 212C251.099 209.817 253.132 209.709 254.676 208.957C255.631 211.047 253.58 211.022 252.324 212Z" fill="#64BCF2"/>
<path d="M112.325 29.0356C111.349 26.976 113.153 26.6873 114.67 25.9316C115.553 27.9713 113.684 28.1579 112.325 29.0356Z" fill="#64BCF2"/>
<path d="M147.811 211.319C149.755 210.993 150.95 212.089 152.035 213.701C149.947 214.406 148.733 213.189 147.811 211.319Z" fill="#64BCF2"/>
<path d="M105.72 49.7935C105.897 51.5467 105.012 52.6025 103.289 53.1644C102.898 51.2829 103.925 50.2996 105.72 49.7935Z" fill="#64BCF2"/>
<path d="M287.962 29.3052C290.147 28.298 290.773 29.9351 291.271 31.7403C290.01 31.2663 288.993 30.452 287.962 29.3052Z" fill="#64BCF2"/>
<path d="M255.274 209.274C255.262 207.767 256.283 207.282 257.722 206.925C258.251 208.786 256.934 209.15 255.274 209.274Z" fill="#64BCF2"/>
<path d="M101.764 165.279C103.283 165.215 103.738 166.254 104.081 167.704C102.197 168.286 101.961 166.869 101.764 165.279Z" fill="#64BCF2"/>
<path d="M107.657 47.0264C109.103 48.5973 107.408 49.0208 106.339 49.9747C104.873 48.3926 106.561 47.9695 107.657 47.0264Z" fill="#64BCF2"/>
<path d="M121.306 22.0322C120.313 20.6678 121.408 20.3562 122.68 19.9302C123.279 21.0991 122.519 21.5852 121.306 22.0322Z" fill="#64BCF2"/>
<path d="M115.272 26.197C115.161 24.6162 116.188 24.0367 117.734 23.8096C117.834 25.3744 116.764 25.9167 115.272 26.197Z" fill="#64BCF2"/>
<path d="M118.285 24.0983C117.879 22.3151 119.13 21.8577 120.763 21.7246C120.691 23.1928 119.701 23.718 118.285 24.0983Z" fill="#64BCF2"/>
<path d="M286.274 41.7879C284.802 41.5895 283.846 40.8343 283.728 39.2124C285.281 39.3306 286.222 40.0966 286.274 41.7879Z" fill="#64BCF2"/>
<path d="M249.221 213.317C249.428 211.914 250.309 211.422 251.796 211.718C251.499 212.974 250.647 213.524 249.221 213.317Z" fill="#64BCF2"/>
<path d="M297.984 39.2906C299.513 37.9709 299.955 39.1587 300.231 40.6654C298.98 41.1059 298.534 40.3246 297.984 39.2906Z" fill="#64BCF2"/>
<path d="M285.297 183.046C284.449 181.706 285.258 181.11 286.696 180.811C287.049 181.972 286.426 182.564 285.297 183.046Z" fill="#64BCF2"/>
<path d="M134.951 202.3C136.242 201.555 136.926 202.245 137.198 203.719C136.34 203.597 135.656 203.112 134.951 202.3Z" fill="#64BCF2"/>
<path d="M115.683 39.8013C115.57 40.6051 115.069 41.2498 114.264 41.9888C113.25 40.6379 114.144 40.0696 115.683 39.8013Z" fill="#64BCF2"/>
<path d="M231.337 224.103C231.095 222.936 231.786 222.476 233.221 222.725C232.968 223.384 232.34 223.769 231.337 224.103Z" fill="#64BCF2"/>
<path d="M123.071 192.295C123.696 191.149 124.292 191.654 124.968 192.646C124.306 193.512 123.764 193.075 123.071 192.295Z" fill="#64BCF2"/>
<path d="M291.081 32.2907C291.695 31.1174 292.296 31.6508 292.972 32.6356C292.294 33.5497 291.776 33.053 291.081 32.2907Z" fill="#64BCF2"/>
<path d="M277.256 191.199C277.054 190.119 277.573 189.606 278.779 189.723C278.582 190.446 278.076 190.908 277.256 191.199Z" fill="#64BCF2"/>
<path d="M287.965 42.6441C287.283 43.6475 286.767 43.0884 286.071 42.3003C286.69 41.2288 287.288 41.7002 287.965 42.6441Z" fill="#64BCF2"/>
<path d="M283.927 38.6948C283.299 39.8281 282.731 39.2399 282.046 38.3462C282.712 37.3612 283.231 37.9169 283.927 38.6948Z" fill="#64BCF2"/>
<path d="M280.292 188.919C279.136 188.312 279.622 187.708 280.633 187.037C281.596 187.719 281.051 188.223 280.292 188.919Z" fill="#64BCF2"/>
<path d="M118.844 187.31C120.012 187.162 120.536 187.815 120.289 189.233C119.574 188.956 119.146 188.317 118.844 187.31Z" fill="#64BCF2"/>
<path d="M96.6231 61.9941C96.8878 62.5742 96.7473 63.195 96.2927 63.9438C95.1695 63.2883 95.605 62.6512 96.6231 61.9941Z" fill="#64BCF2"/>
<path d="M102.654 53.042C103.635 53.7031 103.179 54.2688 102.323 54.9456C101.224 54.2896 101.746 53.7167 102.654 53.042Z" fill="#64BCF2"/>
<path d="M113.77 41.7463C113.58 42.4496 113.071 42.9227 112.252 43.2087C112.064 42.1383 112.579 41.6474 113.77 41.7463Z" fill="#64BCF2"/>
<path d="M294.205 49.7461C293.177 49.9114 292.747 49.3373 292.756 48.2373C293.774 48.117 294.201 48.6537 294.205 49.7461Z" fill="#64BCF2"/>
<path d="M116.7 38.8994C116.883 39.2868 116.708 39.6184 116.242 40.0097C116.081 39.6608 116.212 39.2522 116.7 38.8994Z" fill="#64BCF2"/>
<path d="M111.728 42.9639C111.908 43.3476 111.777 43.7474 111.294 44.0962C111.1 43.6901 111.258 43.335 111.728 42.9639Z" fill="#64BCF2"/>
<path d="M100.266 41.0296C100.087 40.6313 100.211 40.2092 100.701 39.8716C100.901 40.306 100.735 40.656 100.266 41.0296Z" fill="#64BCF2"/>
<path d="M291.038 45.7278C290.652 45.9082 290.252 45.7755 289.903 45.2928C290.311 45.1001 290.667 45.2574 291.038 45.7278Z" fill="#64BCF2"/>
<path d="M124.719 31.9517C124.9 32.3081 124.751 32.6716 124.275 33.0454C124.095 32.69 124.242 32.3244 124.719 31.9517Z" fill="#64BCF2"/>
<path d="M276.943 20.2581C277.319 20.0965 277.697 20.2537 278.063 20.7353C277.682 20.8989 277.313 20.7379 276.943 20.2581Z" fill="#64BCF2"/>
<path d="M289.04 43.737C288.66 43.9147 288.26 43.7824 287.911 43.3002C288.315 43.1092 288.668 43.2682 289.04 43.737Z" fill="#64BCF2"/>
<path d="M110.741 43.9736C110.907 44.3363 110.77 44.7304 110.287 45.0845C110.107 44.698 110.272 44.3515 110.741 43.9736Z" fill="#64BCF2"/>
<path d="M290.027 44.741C289.664 44.9071 289.27 44.769 288.915 44.2858C289.302 44.1061 289.65 44.2715 290.027 44.741Z" fill="#64BCF2"/>
<path d="M109.735 44.9595C109.913 45.3453 109.782 45.7488 109.299 46.0955C109.107 45.6848 109.265 45.3309 109.735 44.9595Z" fill="#64BCF2"/>
<path d="M242.29 218.051C242.106 217.697 242.243 217.326 242.719 216.965C242.909 217.329 242.759 217.681 242.29 218.051Z" fill="#64BCF2"/>
<path d="M108.732 45.9692C108.908 46.3558 108.779 46.7637 108.293 47.108C108.1 46.6932 108.264 46.3419 108.732 45.9692Z" fill="#64BCF2"/>
<path d="M292.021 46.7448C291.663 46.9156 291.26 46.7841 290.908 46.2999C291.298 46.1123 291.638 46.2775 292.021 46.7448Z" fill="#64BCF2"/>
<path d="M293.011 47.7545C292.659 47.9156 292.249 47.785 291.896 47.2938C292.287 47.1098 292.62 47.2863 293.011 47.7545Z" fill="#64BCF2"/>
<path d="M295.089 50.7029C294.698 50.8888 294.351 50.7266 293.973 50.2576C294.338 50.0855 294.736 50.2201 295.089 50.7029Z" fill="#64BCF2"/>
<path d="M113.875 181.301C114.28 181.114 114.605 181.298 115.003 181.765C114.648 181.923 114.222 181.797 113.875 181.301Z" fill="#64BCF2"/>
<path d="M279.224 189.993C279.081 189.656 279.209 189.227 279.712 188.875C279.889 189.268 279.692 189.585 279.224 189.993Z" fill="#64BCF2"/>
<path d="M120.646 190.2C120.908 190.064 121.42 190.155 121.999 190.663C121.676 190.863 121.287 190.645 120.646 190.2Z" fill="#64BCF2"/>
<path d="M122.005 191.226C122.343 191.081 122.769 191.211 123.122 191.712C122.73 191.889 122.411 191.694 122.005 191.226Z" fill="#64BCF2"/>
<path d="M276.296 192.097C276.105 191.694 276.263 191.342 276.733 190.97C276.911 191.349 276.778 191.749 276.296 192.097Z" fill="#64BCF2"/>
<path d="M258.306 207.095C258.126 206.729 258.3 206.397 258.766 206.001C258.926 206.334 258.793 206.732 258.306 207.095Z" fill="#64BCF2"/>
<path d="M249.3 194.733C247.665 194.601 247.103 193.494 246.903 191.837C248.773 191.669 249.261 192.953 249.3 194.733Z" fill="#64BCF2"/>
<path d="M294.888 267.664C293.125 269.185 291.168 268.114 289.334 267.836C282.655 266.823 277.761 270.609 272.231 273.302C275.627 266.757 286.789 263.655 294.888 267.664Z" fill="#64BCF2"/>
<path d="M301.999 271.676C298.925 272.543 297.154 270.137 294.94 268.338C297.974 267.643 299.897 269.611 301.999 271.676Z" fill="#64BCF2"/>
<path d="M307.379 275.724C304.415 277.12 303.373 274.457 301.877 272.342C304.403 272.048 305.493 274.176 307.379 275.724Z" fill="#64BCF2"/>
<path d="M267.243 279.706C266.66 282.063 265.615 284.052 263.301 285.202C263.339 282.509 264.412 280.468 267.243 279.706Z" fill="#64BCF2"/>
<path d="M270.624 274.895C271.126 276.897 269.506 277.819 268.277 279.368C266.271 276.871 268.68 276.054 270.624 274.895Z" fill="#64BCF2"/>
<path d="M309.99 278.711C308.481 279.456 307.847 278.542 307.749 276.804C308.622 277.06 309.266 277.717 309.99 278.711Z" fill="#64BCF2"/>
<path d="M313.121 282.744C312.133 282.953 311.624 282.432 311.729 281.227C312.388 281.414 312.796 281.916 313.121 282.744Z" fill="#64BCF2"/>
<path d="M314.23 284.76C313.621 284.591 313.224 284.089 312.889 283.261C313.867 283.016 314.318 283.559 314.23 284.76Z" fill="#64BCF2"/>
<path d="M271.685 273.066C272.802 273.703 272.326 274.298 271.36 274.97C270.354 274.295 270.812 273.743 271.685 273.066Z" fill="#64BCF2"/>
<path d="M310.999 279.767C310.657 279.918 310.242 279.786 309.889 279.292C310.276 279.115 310.601 279.299 310.999 279.767Z" fill="#64BCF2"/>
<path d="M311.998 280.773C311.658 280.923 311.235 280.794 310.881 280.297C311.272 280.117 311.593 280.306 311.998 280.773Z" fill="#64BCF2"/>
<path d="M262.713 285.074C263.152 285.206 263.275 285.475 263.22 286.152C261.899 286.554 262.128 285.893 262.713 285.074Z" fill="#64BCF2"/>
<path d="M123.152 269.682C116.676 267.571 110.253 266.976 103.342 269.237C108.209 264.458 117.472 264.585 123.152 269.682Z" fill="#64BCF2"/>
<path d="M102.686 268.862C101.549 272.168 98.11 273.01 95.3232 275.063C95.7678 271.024 99.3401 270.227 102.686 268.862Z" fill="#64BCF2"/>
<path d="M137.279 285.751C134.468 284.556 133.308 282.106 132.676 279.223C135.552 280.385 136.745 282.792 137.279 285.751Z" fill="#64BCF2"/>
<path d="M128.361 272.691C125.795 274.612 124.894 271.76 123.076 270.357C125.66 268.612 126.469 271.424 128.361 272.691Z" fill="#64BCF2"/>
<path d="M132.09 277.684C129.386 278.016 128.692 276.184 128.663 273.725C130.345 274.471 131.456 275.729 132.09 277.684Z" fill="#64BCF2"/>
<path d="M92.7123 276.013C93.4599 277.543 92.5169 278.182 90.7915 278.279C91.0608 277.377 91.7178 276.735 92.7123 276.013Z" fill="#64BCF2"/>
<path d="M94.7504 274.79C94.9006 275.829 94.3311 276.27 93.2337 276.257C93.1255 275.23 93.6738 274.803 94.7504 274.79Z" fill="#64BCF2"/>
<path d="M87.722 281.077C88.8329 281.699 88.3332 282.286 87.3468 282.964C86.6018 282.332 86.9818 281.779 87.722 281.077Z" fill="#64BCF2"/>
<path d="M133.023 278.732C132.648 278.92 132.249 278.797 131.904 278.318C132.305 278.116 132.653 278.269 133.023 278.732Z" fill="#64BCF2"/>
<path d="M88.7873 279.633C88.9437 279.908 88.8557 280.422 88.3461 281.002C88.1306 280.669 88.3368 280.271 88.7873 279.633Z" fill="#64BCF2"/>
<path d="M86.7368 282.941C86.9029 283.315 86.7438 283.682 86.2644 284.055C86.1 283.685 86.2557 283.31 86.7368 282.941Z" fill="#64BCF2"/>
<path d="M111.802 246.228C115.106 248.948 118.14 251.44 122.27 254.834C117.923 254.478 115.05 254.23 112.176 254.01C103.886 253.375 96.3406 255.374 89.7262 260.497C88.5951 261.373 87.9482 262.433 86.8642 260.271C78.0439 242.686 63.9213 229.039 52.1108 213.67C49.9155 210.813 44.8274 207.774 45.9843 205.331C47.5558 202.012 52.9166 204.612 56.5799 203.919C59.0833 203.446 60.9631 204.725 62.8477 206.27C79.0439 219.552 95.2957 232.766 111.802 246.228Z" fill="#64BCF2"/>
</svg>
